<svg id="icon" xmlns="http://www.w3.org/2000/svg">
    <path d="M25,38.73H22l-7.1-20.41h4.22l4.56,13.89,5-14.08h2.2l4.72,14.08,4.9-13.89h4.22L37.12,38.73h-3L29.65,25.79Z"/>
    <path d="M58.79,26.92a7.12,7.12,0,0,1,0,10.37,7.56,7.56,0,0,1-5.35,1.87,7.59,7.59,0,0,1-5.36-1.87,7.14,7.14,0,0,1,0-10.37,7.64,7.64,0,0,1,5.36-1.87A7.61,7.61,0,0,1,58.79,26.92Zm-1.62,5.2a3.73,3.73,0,1,0-3.73,3.74A3.69,3.69,0,0,0,57.17,32.12Z"/>
    <path d="M67.64,16.42V38.73H63.91V16.42Z"/>
    <path d="M75,28.66V38.73H71.26V28.66H69.85V25.48h1.41V21.84A5.8,5.8,0,0,1,73,17.15a5,5,0,0,1,3.28-1.1,4.88,4.88,0,0,1,2.14.46v3.4a2.57,2.57,0,0,0-1.68-.55,1.48,1.48,0,0,0-1.35.67,4.35,4.35,0,0,0-.4,2.3v3.15h3.43v3.18Z"/>
    <path d="M90.24,25.48H94V38.12c0,2-.18,4.13-1.84,5.79a7.08,7.08,0,0,1-5.23,1.86,7.2,7.2,0,0,1-5-1.53,7.35,7.35,0,0,1-2.14-4h4a3.16,3.16,0,0,0,.92,1.6,3.29,3.29,0,0,0,2.26.7,3.16,3.16,0,0,0,2.27-.83,3.74,3.74,0,0,0,.95-2.93V37a4.64,4.64,0,0,1-4.07,2.2,6.31,6.31,0,0,1-4.6-1.8,7.3,7.3,0,0,1-2.11-5.27,7.38,7.38,0,0,1,2.05-5.26,6.48,6.48,0,0,1,4.56-1.78,4.69,4.69,0,0,1,4.17,2.14Zm-5.73,3.8a3.62,3.62,0,0,0-1.19,2.81,3.68,3.68,0,0,0,1,2.6A3.6,3.6,0,0,0,87,35.86a3.76,3.76,0,0,0,2.48-.92,3.9,3.9,0,0,0,1.19-2.85,3.78,3.78,0,0,0-1.07-2.66A3.37,3.37,0,0,0,87,28.36,3.6,3.6,0,0,0,84.51,29.28Z"/>
    <path d="M107.69,25.48h3.73V38.73h-3.73V37a4.76,4.76,0,0,1-4.07,2.14c-4.08,0-6.77-3.18-6.77-7.07s2.66-7,6.58-7a4.81,4.81,0,0,1,4.26,2.14Zm-7,6.61a3.67,3.67,0,1,0,3.67-3.73A3.63,3.63,0,0,0,100.71,32.09Z"/>
    <path d="M115,25.48h3.74v1.71a4.86,4.86,0,0,1,4.1-2.14,5.09,5.09,0,0,1,3.92,1.62,5.59,5.59,0,0,1,1,3.74v8.32H124V31.51a3.82,3.82,0,0,0-.71-2.6,2.41,2.41,0,0,0-1.74-.68,2.55,2.55,0,0,0-2.3,1.17,4.54,4.54,0,0,0-.58,2.57v6.76H115Z"/>
    <path d="M141.42,25.48h3.74V38.12c0,2-.19,4.13-1.84,5.79a7.08,7.08,0,0,1-5.23,1.86,7.2,7.2,0,0,1-5-1.53,7.28,7.28,0,0,1-2.14-4h4a3.16,3.16,0,0,0,.92,1.6,3.29,3.29,0,0,0,2.26.7,3.14,3.14,0,0,0,2.26-.83,3.7,3.7,0,0,0,.95-2.93V37a4.63,4.63,0,0,1-4.07,2.2,6.3,6.3,0,0,1-4.59-1.8,7.7,7.7,0,0,1-.06-10.53,6.46,6.46,0,0,1,4.56-1.78,4.67,4.67,0,0,1,4.16,2.14Zm-5.72,3.8a3.77,3.77,0,0,0,2.48,6.58,3.76,3.76,0,0,0,2.48-.92,3.94,3.94,0,0,0,1.19-2.85,3.78,3.78,0,0,0-1.07-2.66,3.37,3.37,0,0,0-2.6-1.07A3.6,3.6,0,0,0,135.7,29.28Z"/>
    <path d="M168.49,34.45h-8.24l-1.8,4.28h-4.32l8.78-20.41H166l8.54,20.41h-4.29Zm-1.17-3.25-2.91-7.34-2.9,7.34Z"/>
    <path d="M176.42,25.48h3.73V27a4.86,4.86,0,0,1,3.95-1.93,4.38,4.38,0,0,1,4.19,2.42,4.9,4.9,0,0,1,4.26-2.42,4.21,4.21,0,0,1,3.58,1.62,5.58,5.58,0,0,1,.92,3.74v8.32h-3.74V31.51a4,4,0,0,0-.61-2.6,1.89,1.89,0,0,0-1.53-.68,2.19,2.19,0,0,0-2,1.17A5,5,0,0,0,188.6,32v6.76h-3.73V31.51a4,4,0,0,0-.62-2.6,1.89,1.89,0,0,0-1.53-.68,2.19,2.19,0,0,0-2.05,1.17,5,5,0,0,0-.52,2.57v6.76h-3.73Z"/>
    <path d="M210.77,25.48h3.73V38.73h-3.73V37a4.76,4.76,0,0,1-4.08,2.14c-4.07,0-6.76-3.18-6.76-7.07s2.66-7,6.58-7a4.81,4.81,0,0,1,4.26,2.14Zm-7,6.61a3.67,3.67,0,1,0,3.67-3.73A3.63,3.63,0,0,0,203.79,32.09Z"/>
    <path d="M228.21,16.42H232V38.73h-3.74V37a4.74,4.74,0,0,1-4.07,2.14c-4.07,0-6.76-3.18-6.76-7.07s2.66-7,6.58-7a4.78,4.78,0,0,1,4.25,2.14Zm-7,15.67a3.67,3.67,0,1,0,3.67-3.73A3.63,3.63,0,0,0,221.24,32.09Z"/>
    <path d="M248.51,35A6.53,6.53,0,0,1,242,39.16a6.93,6.93,0,0,1-5.08-1.87,6.66,6.66,0,0,1-2.08-5.17,7.05,7.05,0,0,1,2-5.2,6.8,6.8,0,0,1,5-1.87A6.34,6.34,0,0,1,247,27.22a7.93,7.93,0,0,1,1.59,5.21v.3h-9.91a3.9,3.9,0,0,0,.64,2.24A3.15,3.15,0,0,0,242,36.22a3.41,3.41,0,0,0,3.09-1.74Zm-3.43-4.68a3.18,3.18,0,0,0-6.27,0Z"/>
    <path d="M255.22,25.48V33a3,3,0,0,0,.79,2.33,3,3,0,0,0,3.8,0,3,3,0,0,0,.8-2.33v-7.5h3.73v8.11a5,5,0,0,1-1.62,4.07,8.45,8.45,0,0,1-9.61,0,5,5,0,0,1-1.63-4.07V25.48Z"/>
    <path d="M275.12,28.63a3.13,3.13,0,0,0-2.18-.88c-.88,0-1.44.42-1.44,1.07,0,.33.16.85,1.2,1.19l.89.28A6.69,6.69,0,0,1,277,32.18a3.84,3.84,0,0,1,.68,2.21,4.4,4.4,0,0,1-1.47,3.36,5.57,5.57,0,0,1-4,1.41A6.66,6.66,0,0,1,267,37L269,34.69a4.11,4.11,0,0,0,2.94,1.53c1,0,1.84-.52,1.84-1.43a1.47,1.47,0,0,0-1.16-1.35l-.86-.31a7.18,7.18,0,0,1-2.85-1.59,3.56,3.56,0,0,1-1-2.54,4,4,0,0,1,1.38-3,5.45,5.45,0,0,1,3.46-.95A6.57,6.57,0,0,1,277,26.46Z"/>
    <path d="M290.7,18.32h2.88l5.41,13,5.67-13h2.88L311,38.73h-4l-1.83-12.58-5.48,12.58h-1.35L293,26.15,291,38.73H286.9Z"/>
    <path d="M326.3,26.92a7.12,7.12,0,0,1,0,10.37,8.6,8.6,0,0,1-10.71,0,7.14,7.14,0,0,1,0-10.37,8.6,8.6,0,0,1,10.71,0Zm-1.62,5.2A3.74,3.74,0,1,0,321,35.86,3.69,3.69,0,0,0,324.68,32.12Z"/>
    <path d="M336.56,35.55h7v3.18H330l7.53-10.07h-6.37V25.48h12.92Z"/>
    <path d="M356.4,25.48h3.73V38.73H356.4V37a4.75,4.75,0,0,1-4.07,2.14,6.73,6.73,0,0,1-6.77-7.07c0-3.92,2.66-7,6.58-7a4.81,4.81,0,0,1,4.26,2.14Zm-7,6.61a3.67,3.67,0,1,0,3.67-3.73A3.63,3.63,0,0,0,349.42,32.09Z"/>
    <path d="M363.69,25.48h3.73v2a4.59,4.59,0,0,1,1.65-1.84,4.14,4.14,0,0,1,2.21-.58,4.44,4.44,0,0,1,1.59.31l-.49,3.49a2.79,2.79,0,0,0-1.75-.49,3.06,3.06,0,0,0-2.48,1.07,4.58,4.58,0,0,0-.73,2.94v6.36h-3.73Z"/>
    <path d="M378.44,28.66V38.73h-3.73V28.66h-1.47V25.48h1.47V21h3.73v4.53H381v3.18Z"/>
</svg>
