<svg id="icon" xmlns="http://www.w3.org/2000/svg">
    <!-- おさげ -->
    <path d="M336,335.12c.37,1.66,1.74,7.78-2,13.22-1.21,1.75-2.36,1.67-6.15,5.09-1.83,1.66-3.22,3.12-4.1,4.07" style="fill:none;stroke:#fff100;stroke-linecap:round;stroke-miterlimit:10;stroke-width:6px"/>
    <path d="M323,321.86a18.11,18.11,0,0,1,6.84,3.09A17.66,17.66,0,0,1,336,335.12" style="fill:none;stroke:#fff100;stroke-miterlimit:10;stroke-width:6px"/>
    <path d="M288,203.5c-.89,2.84-2,6.58-3,11a153.68,153.68,0,0,0-3,18c-1.54,14.09-2.66,24.31,0,37,1.55,7.36,2.35,11.21,5,16,1.92,3.46,3.75,5.53,5,10" style="fill:none;stroke:#fe6939;stroke-miterlimit:10;stroke-width:6px"/>
    <path d="M284,268.5a57.85,57.85,0,0,1,16,1" style="fill:none;stroke:#42a6da;stroke-linecap:round;stroke-miterlimit:10;stroke-width:6px"/>
    <path d="M292,295.5c.27.95.76,2.92,1,10,.19,5.4,0,7.53,0,15,0,8.89.24,10.74,1,13,.83,2.45,1.92,5.67,5,8,4.06,3.06,9.49,3,10,3,2.22-.05,3.18-.54,5,0,2.22.65,3.53,2.24,5,4a23.16,23.16,0,0,1,4,7" style="fill:none;stroke:#ff0679;stroke-linecap:round;stroke-miterlimit:10;stroke-width:6px"/>
    <path d="M254,237.5c.12,2.89.38,7,1,12s1,7.62,2,10c1.3,3,3.53,5.32,8,10a61.42,61.42,0,0,0,8,7,13.78,13.78,0,0,0,7,3,11.92,11.92,0,0,0,2,0" style="fill:none;stroke:#3b9dd2;stroke-linecap:round;stroke-miterlimit:10;stroke-width:6px"/>
    <path d="M283,280.5a40.36,40.36,0,0,0-11,6c-3.54,2.73-5.9,4.56-7,8a13.66,13.66,0,0,0,1,10,14.24,14.24,0,0,0,6,6c1.89,1,3.39,1.29,10,2,3,.32,6.31.66,10,1" style="fill:none;stroke:#66c098;stroke-linecap:round;stroke-miterlimit:10;stroke-width:6px"/>
    <path d="M295,298.5a28.36,28.36,0,0,1,5.13,5.09,45,45,0,0,1,5.12,9.15c2.07,4.49,1.88,5.06,3.07,6.1,2.18,1.91,4.31,1.32,9.23,2,1.79.26,3.64.53,5.45,1" style="fill:none;stroke:#fd6b33;stroke-miterlimit:10;stroke-width:6px"/>
    <path d="M300,269.5c6.47,1.33,8.82,3,10,4a13.28,13.28,0,0,1,5,8,12.22,12.22,0,0,1-2,9c-2.21,3.11-5.45,4-9,5a27.42,27.42,0,0,1-9,1" style="fill:none;stroke:#42a6da;stroke-linecap:round;stroke-miterlimit:10;stroke-width:6px"/>
    <!-- はな -->
    <path d="M128.53,260V249" style="fill:none;stroke:#d4d4d4;stroke-linecap:round;stroke-miterlimit:10;stroke-width:6px"/>
    <path d="M134.53,236a12,12,0,0,1-8,12,11.82,11.82,0,0,1-13-4c-.85-1.18-2.92-4.64,0-15" style="fill:none;stroke:#ff6b39;stroke-linecap:round;stroke-miterlimit:10;stroke-width:6px"/>
    <path d="M113.53,229c4.33-15.31,11.39-16.77,14-29,.75-3.47,2.4-11.82-2-20-1-1.78-5.33-9.91-15-12-10.26-2.22-18,4.19-19,5" style="fill:none;stroke:#fa3520;stroke-miterlimit:10;stroke-width:6px"/>
    <!-- くち -->
    <path d="M118.53,279a15.33,15.33,0,0,0,6,5,15.64,15.64,0,0,0,10,1" style="fill:none;stroke:#ff8a00;stroke-linecap:round;stroke-miterlimit:10;stroke-width:6px"/>
    <path d="M110.53,264a40,40,0,0,0,39,4" style="fill:none;stroke:#ff2f2e;stroke-linecap:round;stroke-miterlimit:10;stroke-width:6px"/>
    <!-- 首 -->
    <path d="M139.53,330a108.84,108.84,0,0,0,20-1,92,92,0,0,0,28-8,92.51,92.51,0,0,0,22-15,118.18,118.18,0,0,0,19-21" style="fill:none;stroke:#fb6c44;stroke-linecap:round;stroke-miterlimit:10;stroke-width:6px"/>
    <line x1="139.53" y1="314" x2="139.53" y2="330" style="fill:none;stroke:#fb0178;stroke-linecap:round;stroke-miterlimit:10;stroke-width:6px"/>
    <!-- 右目 -->
    <circle cx="179.03" cy="190.5" r="8.5" style="fill:none;stroke:#42c6e7;stroke-linecap:round;stroke-miterlimit:10;stroke-width:6px"/>
    <path d="M154.53,193A37.1,37.1,0,0,0,167,198.81c4.37,1.1,9.86,2.48,15.85,0A21.67,21.67,0,0,0,193,189.5" style="fill:none;stroke:#fff000;stroke-linecap:round;stroke-miterlimit:10;stroke-width:6px;opacity:0.75"/>
    <path d="M153.53,193a22.47,22.47,0,0,1,25-12,28.06,28.06,0,0,1,15,8" style="fill:none;stroke:#fb1574;stroke-linecap:round;stroke-miterlimit:10;stroke-width:6px;opacity:0.75"/>
    <!-- うえかみ -->
    <path d="M151.85,91c.45-1.43,1-2.94,1.62-4.51" style="fill:none;stroke:#4d405c;stroke-linecap:round;stroke-miterlimit:10;stroke-width:6px"/>
    <path d="M169,65.5A26,26,0,0,0,167.82,56a20.91,20.91,0,0,0-6.93-10.73A19.12,19.12,0,0,0,147,41.65" style="fill:none;stroke:#f7042f;stroke-linecap:round;stroke-miterlimit:10;stroke-width:6px"/>
    <path d="M127.53,84c-7.13.32-10.83,7.65-11,8" style="fill:none;stroke:#4d405c;stroke-linecap:round;stroke-miterlimit:10;stroke-width:6px"/>
    <path d="M136.53,98c.38-6,.56-9-1-11-2.42-3.17-7.22-3-8-3" style="fill:none;stroke:#3ea6d9;stroke-miterlimit:10;stroke-width:6px"/>
    <path d="M240.53,66s11.27,8.5,18.7,25.61" style="fill:none;stroke:#fa6c39;stroke-linecap:square;stroke-miterlimit:10;stroke-width:6px"/>
    <path d="M187.53,57.13a55.2,55.2,0,0,1,23-3.13c15.5,1.27,26,9,30,12" style="fill:none;stroke:#785d4e;stroke-linecap:square;stroke-miterlimit:10;stroke-width:6px"/>
    <path d="M161.53,73c6.29-7.25,13.66-10.59,19-13,1.82-.82,4.17-1.87,7-2.87" style="fill:none;stroke:#39a8dc;stroke-linecap:square;stroke-miterlimit:10;stroke-width:6px"/>
    <path d="M153.47,86.44A48,48,0,0,1,161.53,73" style="fill:none;stroke:#4d405c;stroke-linecap:square;stroke-miterlimit:10;stroke-width:6px"/>
    <path d="M298.53,131a9.62,9.62,0,0,1-13-4,11.46,11.46,0,0,1-1-7" style="fill:none;stroke:#4b3870;stroke-linecap:square;stroke-miterlimit:10;stroke-width:6px"/>
    <path d="M160.53,105a16.61,16.61,0,0,1-5,8,11.64,11.64,0,0,1-7,3c-4.93.22-8.27-3.24-9-4a13,13,0,0,1-3-5c-.89-2.79-.29-4.32,0-9" style="fill:none;stroke:#61c491;stroke-miterlimit:10;stroke-width:6px"/>
    <path d="M241.51,112.56c.18-4.74.65-6.69,0-10.56a34.6,34.6,0,0,0-4-11,45,45,0,0,0-9-12c-7.52-6.71-18.71-9.24-28-8-20.88,2.8-37.3,25.41-40,34" style="fill:none;stroke:#43a7db;stroke-miterlimit:10;stroke-width:6px"/>
    <path d="M284.53,120c.76-6.66-1.51-13.32-2-20-.69-9.65-9.49-29.55-24-44-34.7-34.55-87-22.94-91-22a103.44,103.44,0,0,0-38,18" style="fill:none;stroke:#ff0b73;stroke-linecap:round;stroke-miterlimit:10;stroke-width:6px"/>
    <path d="M302,125a26.08,26.08,0,0,1-8.64,14,17.26,17.26,0,0,1-9.59,4c-7.12.34-14.27-5.3-18.24-14" style="fill:none;stroke:#3ca7dc;stroke-linecap:round;stroke-miterlimit:10;stroke-width:6.081178665161133px"/>
    <path d="M259.23,91.61a77.49,77.49,0,0,1,6.3,27.39c.36,7.35-2.11,10.14-3,11" style="fill:none;stroke:#e3191f;stroke-miterlimit:10;stroke-width:6px"/>
    <path d="M262.53,130a12.16,12.16,0,0,1-7,3,15.84,15.84,0,0,1-12-5c-1.64-2.16-1.86-4.5-2-8-.12-3.15-.09-5.52,0-7.44" style="fill:none;stroke:#d4d4d4;stroke-miterlimit:10;stroke-width:6px"/>
    <path d="M91.53,121a25.24,25.24,0,0,1-4-12c-.32-5.44,1.34-10,4-15" style="fill:none;stroke:#4d405c;stroke-linecap:round;stroke-miterlimit:10;stroke-width:6px"/>
    <path d="M95.43,87c6-10.16,15.45-22.65,30-24,1.89-.18,12.7-1.18,19.91,6,4.17,4.15,5.35,9.25,6,12,2.4,10.47-2.13,20-2,20" style="fill:none;stroke:#fd0077;stroke-linecap:round;stroke-miterlimit:10;stroke-width:5.98729312419891px"/>
    <path d="M91.53,94c1.1-2,2.39-4.45,3.9-7" style="fill:none;stroke:#4d405c;stroke-linecap:square;stroke-miterlimit:10;stroke-width:6px"/>
    <!-- ひだり耳上髪 -->
    <path d="M88.53,167a12.54,12.54,0,0,0-9,4,12.32,12.32,0,0,0-3,8" style="fill:none;stroke:#e1ff00;stroke-linecap:round;stroke-miterlimit:10;stroke-width:6px"/>
    <path d="M88.53,154a27.2,27.2,0,0,0-23,13c-1.64,2.66-4.68,7.59-4,14,.51,4.78,2.83,8,5,11a27.93,27.93,0,0,0,12,10,26.24,26.24,0,0,0,10,2" style="fill:none;stroke:#ff1d37;stroke-linecap:round;stroke-miterlimit:10;stroke-width:6px"/>
    <path d="M76.53,179a12,12,0,0,0,2,7,12.38,12.38,0,0,0,8,5" style="fill:none;stroke:#e1ff00;stroke-linecap:round;stroke-miterlimit:10;stroke-width:6px"/>
    <path d="M89.53,132c-.48,0-6.61,0-10,5-3.14,4.64-1.39,9.85-1,11a14.06,14.06,0,0,0,3,5" style="fill:none;stroke:#ff7f77;stroke-linecap:round;stroke-miterlimit:10;stroke-width:6px"/>
    <!-- 左目 -->
    <circle cx="112.03" cy="191.5" r="8.5" style="fill:none;stroke:#48c3e8;stroke-linecap:round;stroke-miterlimit:10;stroke-width:6px"/>
    <path d="M87.53,194A37.1,37.1,0,0,0,100,199.81c4.37,1.1,9.86,2.48,15.85,0A21.67,21.67,0,0,0,126,190.5" style="fill:none;stroke:#f8f000;stroke-linecap:round;stroke-miterlimit:10;stroke-width:6px;opacity:0.75"/>
    <path d="M86.53,194a22.47,22.47,0,0,1,25-12,28.06,28.06,0,0,1,15,8" style="fill:none;stroke:#4f3c77;stroke-linecap:round;stroke-miterlimit:10;stroke-width:6px;opacity:0.75"/>
    <!-- みみ -->
    <path d="M274,204.5a17.29,17.29,0,0,1-2,9,18.66,18.66,0,0,1-7,7c-4.2,2.51-6.12,1.58-8,4-1.28,1.65-.61,2.38-2,7-1.3,4.34-2,6.51-4,8-3.36,2.46-7.75,1.08-8,1a8.83,8.83,0,0,1-5-4,8.62,8.62,0,0,1-1-5" style="fill:none;stroke:#99d7e1;stroke-linecap:round;stroke-miterlimit:10;stroke-width:6px"/>
    <!-- 鼻右 -->
    <path d="M140.53,188a112.5,112.5,0,0,0-1,37" style="fill:none;stroke:#66c390;stroke-miterlimit:10;stroke-width:6px"/>
    <path d="M145.53,239a6.82,6.82,0,0,0,6-4,6,6,0,0,0,0-4c-.95-3-3.78-4.41-5-5a12,12,0,0,0-7-1" style="fill:none;stroke:#fe0;stroke-linecap:round;stroke-miterlimit:10;stroke-width:6px"/>
    <path d="M204.53,177a39.88,39.88,0,0,0-21-16,37,37,0,0,0-18-1c-2.83.59-10.78,2.35-17,9-2.8,3-5.7,7.46-8,19" style="fill:none;stroke:#41a7d8;stroke-linecap:round;stroke-miterlimit:10;stroke-width:6px"/>
    <!-- あご -->
    <path d="M99.18,279.54a22.49,22.49,0,0,0,1.35,8.46c4.62,12.67,17.44,18.78,20,20" style="fill:none;stroke:#7d4040;stroke-miterlimit:10;stroke-width:6px"/>
    <path d="M120.53,308c13.12,6.25,26.9,4.05,37.83.58" style="fill:none;stroke:#f42e36;stroke-miterlimit:10;stroke-width:6px"/>
    <path d="M91.53,201c-5.36,18.76-3.72,32.08-1,41,2.58,8.44,6.3,13.55,8,26a76.35,76.35,0,0,1,.65,11.54" style="fill:none;stroke:#1eb0d9;stroke-linecap:round;stroke-miterlimit:10;stroke-width:6px"/>
    <path d="M176.53,301.35c12.49-6,37.92-20.85,45-48.35" style="fill:none;stroke:#f9f100;stroke-miterlimit:10;stroke-width:6px"/>
    <path d="M158.36,308.58c4.67-1.48,8.82-3.2,12.17-4.58,1.17-.48,3.28-1.35,6-2.65" style="fill:none;stroke:#ff6833;stroke-miterlimit:10;stroke-width:6px"/>
    <path d="M221.53,253c1.69-6.56,5.47-21.21-3-33-7.06-9.83-18.39-11.75-20-12-14.43-2.22-24.65,6.78-26,8" style="fill:none;stroke:#d4d4d4;stroke-linecap:round;stroke-miterlimit:10;stroke-width:6px"/>
    <!-- みみ横Uでっぱり -->
    <path d="M262,155.5c15.29.16,27.33.17,38,0" style="fill:none;stroke:#bdc300;stroke-linecap:round;stroke-miterlimit:10;stroke-width:6px"/>
    <path d="M324,173.5a23.36,23.36,0,0,1-2,15,24,24,0,0,1-10,10" style="fill:none;stroke:#99d2dc;stroke-linecap:round;stroke-miterlimit:10;stroke-width:6px"/>
    <path d="M300,155.5c3.62-.06,8.86-.16,14,3,7.85,4.83,9.76,13.78,10,15" style="fill:none;stroke:#3da3dc;stroke-miterlimit:10;stroke-width:6px"/>
    <path d="M295,202.5a324,324,0,0,1-36-1" style="fill:none;stroke:#63c390;stroke-linecap:round;stroke-miterlimit:10;stroke-width:6px"/>
    <path d="M312,198.5c-6.19,3.56-12.15,3.86-17,4" style="fill:none;stroke:#c3c200;stroke-miterlimit:10;stroke-width:6px"/>
    <!-- 右髪 -->
    <path d="M251.53,203c-12.18,2.43-21-5.13-22-6" style="fill:none;stroke:#f83823;stroke-linecap:round;stroke-miterlimit:10;stroke-width:6px"/>
    <path d="M244.53,153c6.07,2.08,7.34-.31,13,2a24.57,24.57,0,0,1,14,16" style="fill:none;stroke:#ca1f34;stroke-miterlimit:10;stroke-width:6px"/>
    <path d="M271.53,171a25.29,25.29,0,0,1-2,18c-.79,1.58-6,11.61-18,14" style="fill:none;stroke:#e25f00;stroke-miterlimit:10;stroke-width:6px"/>
    <path d="M255.53,186a11.1,11.1,0,0,1-7,3,14.64,14.64,0,0,1-9-2" style="fill:none;stroke:#ffa93e;stroke-linecap:round;stroke-miterlimit:10;stroke-width:6px"/>
    <path d="M256.56,173.12a9.77,9.77,0,0,1,2,5.88,10.35,10.35,0,0,1-3,7" style="fill:none;stroke:#fb0075;stroke-miterlimit:10;stroke-width:6px"/>
    <path d="M247.53,167a15.1,15.1,0,0,1,6,3,16.44,16.44,0,0,1,3,3.12" style="fill:none;stroke:#fb0075;stroke-linecap:round;stroke-miterlimit:10;stroke-width:6px"/>
    <!-- おでこ側かみ -->
    <path d="M227.53,136c.44,1.09,5.46,13,17,17" style="fill:none;stroke:#4d3965;stroke-linecap:round;stroke-miterlimit:10;stroke-width:6px"/>
    <path d="M225.53,118c1.68,10.77-.52,11.75,2,18" style="fill:none;stroke:#69c199;stroke-miterlimit:10;stroke-width:6px"/>
    <path d="M172.53,111c3.26-5.86,1.63-7.19,5-12,6.2-8.83,16.25-10.86,17-11,1.17-.22,12.46-2.14,21,5,7,5.86,8.39,14.66,10,25" style="fill:none;stroke:#fbf182;stroke-miterlimit:10;stroke-width:6px"/>
    <path d="M137.53,126c5.85,3.13,12.28,1.64,15,1,12.36-2.88,18.74-13.72,20-16" style="fill:none;stroke:#be8661;stroke-miterlimit:10;stroke-width:6px"/>
    <path d="M97.22,114.85a30.63,30.63,0,0,1,4.31-5.85" style="fill:none;stroke:#e25f00;stroke-miterlimit:10;stroke-width:6px"/>
    <path d="M91.53,172c-2.18-19.71-.54-34.33,1-43a43.52,43.52,0,0,1,4.69-14.15" style="fill:none;stroke:#e25f00;stroke-linecap:round;stroke-miterlimit:10;stroke-width:6px"/>
    <path d="M126.53,113c6.61,7.28,6.17,10.41,11,13" style="fill:none;stroke:#6b7a4c;stroke-linejoin:round;stroke-width:6px"/>
    <path d="M101.53,109c2.25-2.39,5.47-5.81,10-6,5.7-.24,10.25,4.77,15,10" style="fill:none;stroke:#61c399;stroke-linejoin:round;stroke-width:6px"/>
</svg>
